<svg height="512pt" viewBox="0 -9 512 512" width="512pt" xmlns="http://www.w3.org/2000/svg"><path d="m304.867188 161.84375c-2.308594 0-4.597657-1.023438-6.132813-2.980469l-14.457031-18.417969c-2.65625-3.382812-2.058594-8.273437 1.324218-10.921874 3.382813-2.648438 8.277344-2.0625 10.929688 1.320312l14.457031 18.417969c2.65625 3.382812 2.066407 8.273437-1.320312 10.921875-1.425781 1.117187-3.117188 1.660156-4.800781 1.660156zm0 0" fill="#ccc"/><g fill-rule="evenodd"><path d="m224.019531 191.488281v171.089844l97.375 26.914063 98.367188-26.914063v-171.089844c0-5.664062-4.644531-10.304687-10.308594-10.304687-71.5 0-103.625 0-175.125 0-5.667969 0-10.308594 4.640625-10.308594 10.304687zm0 0" fill="#ffcc73"/><path d="m289.878906 181.183594v28.871094c0 4.320312 3.5625 7.878906 7.886719 7.878906h48.222656c4.351563 0 7.882813-3.558594 7.882813-7.878906v-28.871094zm0 0" fill="#e8e8e8"/><path d="m224.019531 191.488281v171.089844h38.085938v-170.710937c0-5.664063 4.644531-10.683594 10.308593-10.683594h-38.085937c-5.667969 0-10.308594 4.640625-10.308594 10.304687zm0 0" fill="#f59556"/><path d="m98.953125 53.878906 33.585937.027344 48.75-.027344c15.914063-8.085937 21.4375-22.945312 2.949219-32.371094h-93.960937l-5.898438 19.410157zm0 0" fill="#e8e8e8"/><path d="m98.953125 53.878906h7.183594c.234375-.644531.46875-1.285156.644531-1.929687.875-2.886719 1.316406-3.441407 1.316406-9.105469 0-5.691406-3.070312-15.675781-8.121094-21.335938h-9.695312l-5.902344 19.410157zm0 0" fill="#ccc"/><path d="m36.101562 299.234375v80.480469c5.199219-2.597656 10.804688-4.527344 16.675782-5.664063 3.972656-.757812 8.089844-1.167969 12.265625-1.167969h35.226562v-73.648437c-9.082031 6.332031-20.152343 10.039063-32.070312 10.039063-11.945313 0-22.984375-3.707032-32.097657-10.039063zm0 0" fill="#b3b3b3"/><path d="m51.988281 72.441406v137l16.210938 10.304688 16.179687-10.304688v-137l-16.179687-8.902344zm0 0" fill="#b3b3b3"/><path d="m268.03125 56.769531-29.378906 8.433594-16.386719 25.71875 18.222656 24.402344 27.777344-9.28125 17.992187-24.871094zm0 0" fill="#808080"/><path d="m265.960938 124.023438 10.394531 13.925781c2.164062 2.890625 6.28125 3.476562 9.171875 1.34375l9.753906-7.300781c2.894531-2.15625 3.503906-6.273438 1.34375-9.164063l-10.398438-13.925781-17.230468 1.433594zm0 0" fill="#808080"/><path d="m286.257812 81.171875-45.769531 34.152344-4.609375 3.445312c-4.90625 3.648438-5.902344 10.65625-2.25 15.53125 3.648438 4.90625 10.660156 5.925781 15.566406 2.277344l16.765626-12.554687 20.269531-15.121094 17.960937-13.367188c4.878906-3.679687 5.902344-10.65625 2.25-15.558594-3.652344-4.90625-10.660156-5.898437-15.570312-2.25zm0 0" fill="#e8e8e8"/><path d="m36.101562 44.769531c0 11.792969 6.394532 22.128907 15.886719 27.671875 4.761719 2.804688 10.28125 4.378906 16.210938 4.378906 5.898437 0 11.421875-1.574218 16.179687-4.378906 6.953125-4.054687 12.238282-10.683594 14.574219-18.5625.851563-2.890625 1.316406-5.957031 1.316406-9.109375 0-9.167969-3.828125-17.425781-9.988281-23.265625-5.753906-5.460937-13.523438-8.816406-22.082031-8.816406-17.726563 0-32.097657 14.363281-32.097657 32.082031zm0 0" fill="#808080"/><path d="m11.914062 263.328125c0 19.121094 9.554688 36.050781 24.1875 46.210937 9.113282 6.332032 20.152344 10.042969 32.097657 10.042969 11.917969 0 22.988281-3.710937 32.070312-10.042969 14.632813-10.160156 24.210938-27.089843 24.210938-46.210937 0-25.457031-16.910157-46.941406-40.101563-53.886719-5.140625-1.546875-10.570312-2.367187-16.179687-2.367187-5.636719 0-11.070313.820312-16.210938 2.367187-23.1875 6.949219-40.074219 28.429688-40.074219 53.886719zm0 0" fill="#808080"/><path d="m46.441406 263.328125c0 11.996094 9.722656 21.746094 21.757813 21.746094 12.003906 0 21.757812-9.75 21.757812-21.746094 0-12.027344-9.753906-21.746094-21.757812-21.746094-12.035157 0-21.757813 9.71875-21.757813 21.746094zm0 0" fill="#e8e8e8"/><path d="m222.265625 90.921875 18.222656 24.402344 13.320313-9.921875-18.222656-24.433594zm0 0" fill="#525252"/><path d="m184.238281 21.503906c-5.316406 9.867188-6.453125 21.632813-2.949219 32.375 1.34375 4.171875 3.386719 8.171875 6.132813 11.851563l24.914063 32.578125 9.929687-7.386719 45.765625-34.152344 9.933594-7.417969-24.566406-32.867187c-13.550782-18.128906-39.484376-21.894531-57.625-8.347656-4.933594 3.675781-8.789063 8.257812-11.535157 13.367187zm0 0" fill="#ffcc73"/><path d="m233.628906 134.300781c3.648438 4.90625 10.660156 5.925781 15.566406 2.277344l11.214844-8.378906c-4.90625 3.621093-11.859375 2.597656-15.511718-2.304688-2.625-3.472656-2.859376-8.058593-.992188-11.707031.761719-1.457031 1.839844-2.800781 3.242188-3.824219l-6.660157 4.960938-4.609375 3.445312c-4.90625 3.652344-5.902344 10.65625-2.25 15.53125zm0 0" fill="#ccc"/><path d="m265.960938 124.023438 10.394531 13.925781c2.164062 2.890625 6.28125 3.476562 9.171875 1.34375l4.878906-3.648438 3.738281-2.804687c-2.890625 2.132812-7.011719 1.546875-9.144531-1.339844l-10.398438-13.898438zm0 0" fill="#525252"/><path d="m68.199219 12.6875c-17.730469 0-32.101563 14.363281-32.101563 32.082031 0 11.792969 6.398438 22.128907 15.890625 27.671875 4.761719 2.804688 10.28125 4.378906 16.210938 4.378906.757812 0 1.515625-.027343 2.246093-.058593-3.882812-2.304688-7.269531-5.367188-9.871093-9.019531-3.796875-5.253907-6.015625-11.703126-6.015625-18.683594 0-16.957032 13.171875-30.824219 29.820312-31.992188-4.761718-2.773437-10.28125-4.378906-16.179687-4.378906zm0 0" fill="#525252"/><path d="m51.988281 72.441406v137c5.140625-1.546875 10.574219-2.367187 16.210938-2.367187.757812 0 1.488281 0 2.246093.03125v-130.339844c-.730468.027344-1.488281.058594-2.246093.058594-5.929688 0-11.449219-1.578125-16.210938-4.382813zm0 0" fill="#999"/><path d="m11.914062 263.328125c0 19.121094 9.554688 36.050781 24.1875 46.210937 9.113282 6.332032 20.152344 10.042969 32.097657 10.042969 4.207031 0 8.324219-.46875 12.269531-1.34375-11.042969-.4375-21.292969-4.085937-29.820312-10.015625-1.519532-1.050781-3.011719-2.1875-4.410157-3.382812-12.09375-10.335938-19.773437-25.691406-19.773437-42.828125 0-21.570313 12.148437-40.3125 29.996094-49.742188 3.183593-1.691406 6.570312-3.09375 10.074218-4.144531 1.285156-.378906 2.601563-.730469 3.914063-1.019531-.761719-.03125-1.488281-.03125-2.25-.03125-5.636719 0-11.066407.820312-16.210938 2.367187-23.1875 6.949219-40.074219 28.429688-40.074219 53.886719zm0 0" fill="#525252"/><path d="m36.101562 309.539062v70.175782c4.671876-2.335938 9.636719-4.117188 14.867188-5.285156v-57.535157c-5.347656-1.722656-10.339844-4.234375-14.867188-7.355469zm0 0" fill="#999"/><path d="m68.199219 241.582031c-12.035157 0-21.757813 9.71875-21.757813 21.746094 0 11.996094 9.722656 21.746094 21.757813 21.746094 3.621093 0 7.066406-.902344 10.074219-2.480469-10.222657-1.78125-17.960938-10.710938-17.960938-21.425781 0-8.378907 4.703125-15.648438 11.652344-19.265625-1.226563-.234375-2.484375-.320313-3.765625-.320313zm0 0" fill="#ccc"/><path d="m52.777344 363.746094c-29.96875 5.78125-52.777344 32.285156-52.777344 63.871094v1.371093c0 35.761719 29.265625 65.011719 65.042969 65.011719h381.882812c35.808594 0 65.074219-29.25 65.074219-65.007812v-1.375c0-35.757813-29.265625-65.035157-65.074219-65.035157h-166.277343c-7.09375.085938-13.316407.230469-18.542969.378907v-.378907h-197.0625c-4.175781-.003906-8.292969.40625-12.265625 1.164063zm0 0" fill="#e8e8e8"/><path d="m26.929688 428.289062c0 21.339844 17.464843 38.796876 38.816406 38.796876h380.507812c21.351563 0 38.816406-17.457032 38.816406-38.796876 0-21.339843-17.464843-38.796874-38.816406-38.796874h-380.507812c-1.3125 0-2.601563.089843-3.855469.203124-19.570313 1.957032-34.960937 18.570313-34.960937 38.59375zm0 0" fill="#808080"/><path d="m157.804688 428.523438c0 8.609374 7.011718 15.617187 15.628906 15.617187 8.644531 0 15.652344-7.007813 15.652344-15.617187 0-8.640626-7.007813-15.648438-15.652344-15.648438-8.617188 0-15.628906 7.007812-15.628906 15.648438zm0 0" fill="#e8e8e8"/><path d="m239.585938 428.289062c0 8.640626 7.011718 15.644532 15.652343 15.644532 8.617188 0 15.628907-7.003906 15.628907-15.644532 0-8.613281-7.011719-15.617187-15.628907-15.617187-8.640625 0-15.652343 7.003906-15.652343 15.617187zm0 0" fill="#e8e8e8"/><path d="m337.222656 412.671875c-8.613281 0-15.625 7.003906-15.625 15.617187 0 8.640626 7.011719 15.644532 15.625 15.644532 8.648438 0 15.65625-7.003906 15.65625-15.644532 0-8.613281-7.007812-15.617187-15.65625-15.617187zm0 0" fill="#e8e8e8"/><path d="m419.03125 412.4375c-8.644531 0-15.652344 7.007812-15.652344 15.648438 0 8.609374 7.011719 15.617187 15.652344 15.617187 8.617188 0 15.625-7.007813 15.625-15.617187 0-8.640626-7.007812-15.648438-15.625-15.648438zm0 0" fill="#e8e8e8"/><path d="m61.890625 389.699219c-19.566406 1.953125-34.960937 18.5625-34.960937 38.589843 0 21.339844 17.464843 38.796876 38.816406 38.796876h380.507812c1.375 0 2.746094-.089844 4.089844-.207032h-348.441406c-21.320313 0-38.785156-17.453125-38.785156-38.796875 0-11.851562 5.375-22.503906 13.8125-29.625 5.785156-4.875 13-8.117187 20.882812-8.964843h-32.066406c-1.3125 0-2.601563.089843-3.855469.207031zm0 0" fill="#525252"/><path d="m52.777344 363.746094c-29.96875 5.78125-52.777344 32.285156-52.777344 63.871094v1.371093c0 35.761719 29.265625 65.011719 65.042969 65.011719h41.914062c-22.550781 0-42.523437-11.617188-54.210937-29.164062-15.011719-5.371094-25.816406-19.761719-25.816406-36.546876 0-16.785156 10.808593-31.175781 25.816406-36.546874 1.609375-2.394532 3.359375-4.699219 5.257812-6.859376 9.378906-10.714843 22.199219-18.332031 36.6875-21.136718 3.972656-.757813 8.089844-1.167969 12.265625-1.167969h-41.914062c-4.175781 0-8.292969.410156-12.265625 1.167969zm0 0" fill="#ccc"/><path d="m184.238281 21.503906c-5.316406 9.867188-6.453125 21.632813-2.949219 32.375 1.34375 4.171875 3.386719 8.171875 6.132813 11.851563l24.914063 32.578125 9.929687-7.386719 13.320313-9.953125-3.828126-4.964844-21.117187-27.613281c-2.746094-3.679687-4.789063-7.675781-6.132813-11.851563-3.476562-10.742187-2.367187-22.507812 2.949219-32.375.46875-.875.992188-1.722656 1.519531-2.566406-4.644531 1.34375-9.113281 3.5-13.199218 6.539063-4.9375 3.675781-8.792969 8.257812-11.539063 13.367187zm0 0" fill="#f59556"/><path d="m76.027344 428.726562c0 8.640626 6.980468 15.617188 15.625 15.617188 8.644531 0 15.625-6.976562 15.625-15.617188 0-8.640624-6.976563-15.617187-15.625-15.617187-8.644532 0-15.625 6.976563-15.625 15.617187zm0 0" fill="#e8e8e8"/></g></svg>